<svg width="84" height="17" viewBox="0 0 84 17" fill="none" xmlns="http://www.w3.org/2000/svg">
<path d="M0.342 16C0.444667 16 0.54 15.8973 0.628 15.692C0.730667 15.4867 0.782 15.1493 0.782 14.68V4.12C0.782 3.65067 0.730667 3.32067 0.628 3.13C0.525333 2.92467 0.422667 2.81467 0.32 2.8H7.536C8.9 2.8 9.96333 2.96867 10.726 3.306C11.4887 3.62867 12.024 4.098 12.332 4.714C12.6547 5.31533 12.816 6.04867 12.816 6.914C12.816 7.45667 12.6987 7.992 12.464 8.52C12.2293 9.048 11.848 9.50267 11.32 9.884C10.8067 10.2653 10.11 10.5147 9.23 10.632V10.698C10.2127 10.962 11.056 11.446 11.76 12.15C12.4787 12.854 13.0947 13.624 13.608 14.46C13.9453 15.0027 14.2533 15.3913 14.532 15.626C14.8107 15.8607 15.0233 15.9853 15.17 16H10.55C10.726 15.9853 10.8653 15.89 10.968 15.714C11.0853 15.5233 11.0487 15.2153 10.858 14.79C10.4033 13.734 9.648 12.8613 8.592 12.172C7.55067 11.4827 6.15 11.138 4.39 11.138H4.148C3.69333 11.138 3.42933 11.1747 3.356 11.248C3.28267 11.3213 3.246 11.5047 3.246 11.798V14.68C3.246 15.1493 3.29733 15.4867 3.4 15.692C3.50267 15.8973 3.60533 16 3.708 16H0.342ZM4.148 9.378H6.854C9.20067 9.378 10.374 8.55667 10.374 6.914C10.374 6.09267 10.11 5.49867 9.582 5.132C9.06867 4.76533 8.23267 4.582 7.074 4.582H4.148C3.69333 4.582 3.42933 4.604 3.356 4.648C3.28267 4.692 3.246 4.86067 3.246 5.154V8.784C3.246 9.07733 3.28267 9.25333 3.356 9.312C3.42933 9.356 3.69333 9.378 4.148 9.378ZM20.9383 16.22C19.7796 16.22 18.8263 16.088 18.0783 15.824C17.3303 15.5453 16.7436 15.164 16.3183 14.68C15.893 14.196 15.5923 13.6313 15.4163 12.986C15.255 12.3407 15.1743 11.6367 15.1743 10.874C15.1743 9.21667 15.6436 7.904 16.5823 6.936C17.5356 5.968 18.9436 5.484 20.8063 5.484C21.8916 5.484 22.7643 5.63067 23.4243 5.924C24.099 6.21733 24.605 6.606 24.9423 7.09C25.2943 7.574 25.529 8.102 25.6463 8.674C25.7783 9.23133 25.8443 9.78133 25.8443 10.324V11.358C25.8443 11.314 25.639 11.27 25.2283 11.226C24.8323 11.1673 24.1576 11.138 23.2043 11.138H17.4183C17.4183 12.2233 17.741 13.0813 18.3863 13.712C19.0316 14.3427 19.9923 14.658 21.2683 14.658C22.3683 14.658 23.2703 14.526 23.9743 14.262C24.693 13.9833 25.1696 13.712 25.4043 13.448V13.888L25.6243 15.34C25.3016 15.5307 24.7296 15.7287 23.9083 15.934C23.1016 16.1247 22.1116 16.22 20.9383 16.22ZM18.2983 9.686H23.6443C23.6443 9.30467 23.5636 8.90867 23.4023 8.498C23.241 8.08733 22.955 7.74267 22.5443 7.464C22.1336 7.17067 21.5543 7.024 20.8063 7.024C19.853 7.024 19.0903 7.25133 18.5183 7.706C17.961 8.16067 17.6823 8.674 17.6823 9.246C17.6823 9.39267 17.7263 9.50267 17.8143 9.576C17.9023 9.64933 18.0636 9.686 18.2983 9.686ZM32.7868 16.22C31.3935 16.22 30.3082 15.9853 29.5308 15.516C28.7682 15.0467 28.2328 14.4087 27.9248 13.602C27.6315 12.7953 27.4848 11.886 27.4848 10.874C27.4848 9.84733 27.6315 8.93067 27.9248 8.124C28.2328 7.31733 28.7682 6.67933 29.5308 6.21C30.3082 5.726 31.3935 5.484 32.7868 5.484C33.6668 5.484 34.4002 5.60133 34.9868 5.836C35.5735 6.07067 36.0355 6.37133 36.3728 6.738L36.4168 6.716L36.3728 6.298V2.14C36.3728 1.67067 36.3215 1.34067 36.2188 1.15C36.1308 0.944666 36.0355 0.834666 35.9328 0.819999H38.6168V14.68C38.6168 15.1493 38.6608 15.4867 38.7488 15.692C38.8515 15.8973 38.9542 16 39.0568 16H36.3728V15.318L36.4388 14.9L36.3728 14.878C36.0355 15.2593 35.5735 15.582 34.9868 15.846C34.4002 16.0953 33.6668 16.22 32.7868 16.22ZM32.9408 14.658C33.6888 14.658 34.2902 14.548 34.7448 14.328C35.1995 14.0933 35.5442 13.7927 35.7788 13.426C36.0135 13.0447 36.1675 12.634 36.2408 12.194C36.3288 11.754 36.3728 11.314 36.3728 10.874C36.3728 10.4927 36.3288 10.082 36.2408 9.642C36.1528 9.18733 35.9915 8.762 35.7568 8.366C35.5222 7.97 35.1775 7.64733 34.7228 7.398C34.2682 7.14867 33.6742 7.024 32.9408 7.024C31.7088 7.024 30.8582 7.376 30.3888 8.08C29.9342 8.784 29.7068 9.72267 29.7068 10.896C29.7068 11.6733 29.7948 12.348 29.9708 12.92C30.1615 13.4773 30.4915 13.91 30.9608 14.218C31.4302 14.5113 32.0902 14.658 32.9408 14.658ZM41.7041 16C41.8067 16 41.9021 15.8973 41.9901 15.692C42.0927 15.4867 42.1441 15.1493 42.1441 14.68V7.244H40.1641V5.704H42.3641L42.3861 5.66C42.3421 5.58667 42.2541 5.34467 42.1221 4.934C41.9901 4.50867 41.9241 4.01 41.9241 3.438C41.9241 2.27933 42.2541 1.44333 42.9141 0.929999C43.5741 0.416666 44.4907 0.159999 45.6641 0.159999C46.4561 0.159999 47.1747 0.211332 47.8201 0.313999C48.4801 0.401999 48.9567 0.497333 49.2501 0.599999V1.062L49.6901 2.778C49.6901 2.79267 49.6901 2.8 49.6901 2.8V2.778C49.6461 2.69 49.4407 2.56533 49.0741 2.404C48.7221 2.228 48.2674 2.074 47.7101 1.942C47.1527 1.79533 46.5661 1.722 45.9501 1.722C45.3341 1.722 44.8794 1.86133 44.5861 2.14C44.3074 2.404 44.1681 2.91733 44.1681 3.68V5.044C44.1681 5.36667 44.1974 5.55733 44.2561 5.616C44.3147 5.67467 44.5127 5.704 44.8501 5.704H48.5901C48.5021 5.85067 48.4067 6.07067 48.3041 6.364C48.2014 6.64267 48.1501 6.936 48.1501 7.244H44.3881V14.68C44.3881 15.1493 44.4394 15.4867 44.5421 15.692C44.6447 15.8973 44.7401 16 44.8281 16H41.7041ZM54.6903 16.22C53.5316 16.22 52.5783 16.088 51.8303 15.824C51.0823 15.5453 50.4956 15.164 50.0703 14.68C49.6449 14.196 49.3443 13.6313 49.1683 12.986C49.0069 12.3407 48.9263 11.6367 48.9263 10.874C48.9263 9.21667 49.3956 7.904 50.3343 6.936C51.2876 5.968 52.6956 5.484 54.5583 5.484C55.6436 5.484 56.5163 5.63067 57.1763 5.924C57.8509 6.21733 58.3569 6.606 58.6943 7.09C59.0463 7.574 59.2809 8.102 59.3983 8.674C59.5303 9.23133 59.5963 9.78133 59.5963 10.324V11.358C59.5963 11.314 59.3909 11.27 58.9803 11.226C58.5843 11.1673 57.9096 11.138 56.9563 11.138H51.1703C51.1703 12.2233 51.4929 13.0813 52.1383 13.712C52.7836 14.3427 53.7443 14.658 55.0203 14.658C56.1203 14.658 57.0223 14.526 57.7263 14.262C58.4449 13.9833 58.9216 13.712 59.1562 13.448V13.888L59.3763 15.34C59.0536 15.5307 58.4816 15.7287 57.6603 15.934C56.8536 16.1247 55.8636 16.22 54.6903 16.22ZM52.0503 9.686H57.3963C57.3963 9.30467 57.3156 8.90867 57.1543 8.498C56.9929 8.08733 56.7069 7.74267 56.2963 7.464C55.8856 7.17067 55.3063 7.024 54.5583 7.024C53.6049 7.024 52.8423 7.25133 52.2703 7.706C51.7129 8.16067 51.4343 8.674 51.4343 9.246C51.4343 9.39267 51.4783 9.50267 51.5663 9.576C51.6543 9.64933 51.8156 9.686 52.0503 9.686ZM61.4788 16C61.5815 16 61.6768 15.8973 61.7648 15.692C61.8675 15.4867 61.9188 15.1493 61.9188 14.68V7.244C61.9188 6.77467 61.8675 6.44467 61.7648 6.254C61.6768 6.04867 61.5815 5.93867 61.4788 5.924C62.1241 5.924 62.6815 5.88 63.1508 5.792C63.6348 5.68933 63.9721 5.58667 64.1628 5.484V6.584L64.1188 6.958L64.1628 7.002C64.5001 6.57667 64.9328 6.21733 65.4608 5.924C66.0035 5.63067 66.6708 5.484 67.4628 5.484C68.1521 5.484 68.7461 5.58667 69.2448 5.792C69.7581 5.98267 70.1248 6.18067 70.3448 6.386L69.9048 8.234V8.894C69.7141 8.65933 69.4355 8.41733 69.0688 8.168C68.7168 7.904 68.3135 7.684 67.8588 7.508C67.4041 7.332 66.9201 7.244 66.4068 7.244C65.8201 7.244 65.2995 7.47867 64.8448 7.948C64.3901 8.41733 64.1628 9.19467 64.1628 10.28V14.68C64.1628 15.1493 64.2068 15.4867 64.2948 15.692C64.3975 15.8973 64.5001 16 64.6028 16H61.4788ZM71.7913 16C71.894 16 71.9893 15.8973 72.0773 15.692C72.18 15.4867 72.2313 15.1493 72.2313 14.68V7.244C72.2313 6.77467 72.18 6.44467 72.0773 6.254C71.9893 6.04867 71.894 5.93867 71.7913 5.924C72.4366 5.924 72.994 5.88 73.4633 5.792C73.9473 5.68933 74.2846 5.58667 74.4753 5.484V6.826L74.4313 7.112L74.4753 7.156C74.798 6.74533 75.2746 6.364 75.9053 6.012C76.536 5.66 77.372 5.484 78.4133 5.484C79.7773 5.484 80.8186 5.87267 81.5373 6.65C82.2706 7.42733 82.6373 8.64467 82.6373 10.302V14.68C82.6373 15.1493 82.6813 15.4867 82.7693 15.692C82.872 15.8973 82.9746 16 83.0773 16H79.9533C80.056 16 80.1513 15.8973 80.2393 15.692C80.342 15.4867 80.3933 15.1493 80.3933 14.68V10.368C80.3933 9.50267 80.2833 8.828 80.0633 8.344C79.8433 7.86 79.5353 7.52267 79.1393 7.332C78.758 7.12667 78.3106 7.024 77.7973 7.024C77.2546 7.024 76.7266 7.14133 76.2133 7.376C75.7 7.61067 75.282 7.98467 74.9593 8.498C74.6366 9.01133 74.4753 9.70067 74.4753 10.566V14.68C74.4753 15.1493 74.5193 15.4867 74.6073 15.692C74.71 15.8973 74.8126 16 74.9153 16H71.7913Z" fill="white"/>
</svg>
